<svg aria-hidden="true" xmlns="http://www.w3.org/2000/svg" width="34" height="34" viewBox="0 0 34 32"><path d="M30.854 33H3.105a2.1 2.1 0 0 1-2.09-2.092V3.092A2.1 2.1 0 0 1 3.105 1h27.748a2.1 2.1 0 0 1 2.09 2.092v27.816A2.1 2.1 0 0 1 30.854 33z" stroke="#FFF" stroke-width="2" fill="#FFF"/><path d="M7.324 16.885c0 1.19.984 2.174 2.172 2.174a2.188 2.188 0 0 0 2.173-2.174c0-1.19-.984-2.175-2.173-2.175a2.188 2.188 0 0 0-2.172 2.175zM13.677 9.5h2.254v11.61h-2.254V9.5zm4.509 0h2.254v14.974h-2.254V9.5zm4.098 7.385c0 1.19.984 2.174 2.172 2.174a2.188 2.188 0 0 0 2.173-2.174c0-1.19-.984-2.175-2.173-2.175-1.23 0-2.172.985-2.172 2.175z" fill="#5B616B"/></svg>
