<svg aria-hidden="true" xmlns="http://www.w3.org/2000/svg" width="34" height="32"><path d="M23.808 22.048q-.064-.448-.48-.608t-.864-.192-.896-.224-.448-.672q-.096-.864.608-2.496t1.312-3.232.576-2.272q-.224-1.824-2.08-1.856-.8 0-1.344.288l-.032.032-.096.064-.096.032-.096.032h-.064l-.128-.032-.096-.064-.128-.096q-.032-.032-.16-.128t-.16-.16-.128-.16-.192-.128-.16-.096-.192-.064-.224-.064q-.512-.064-.832.064t-.832.544q0 .032-.16.16t-.224.192-.256.192-.288.096-.32-.064q-.96-.48-1.472-.704-.736-.32-1.696.096t-1.344 1.152q-.288.512-.736 1.76t-.768 2.368-.736 2.4-.384 1.28q-.384 1.248.352 2.144t1.952.8q.544-.032.896-.256t.704-.832q.128-.224 1.408-3.552t1.376-3.488q.096-.192.384-.32t.512 0q.48.288.384.96-.032.32-.896 2.496t-.896 2.368q-.128.672.352.992t1.056.128.992-.864q.064-.16.8-1.664t1.472-2.912.832-1.568q.352-.544.704-.512.544 0 .448.672-.032.288-1.152 2.656t-1.248 2.848q-.224.928.224 1.824t1.312 1.312q.32.16.928.288t1.248.128 1.12-.224.352-.864zm-16.96 3.84q.032.256-.096.48t-.416.288q-.256.064-.48-.096t-.256-.416q-.064-.224.096-.48t.384-.288.48.096.288.416zm10.176 4.704q.224.288.16.672t-.384.576-.672.128-.576-.352q-.192-.32-.128-.672t.352-.576.672-.16.576.384zM3.168 16.096q-.32.48-.896.576t-1.024-.224-.576-.896.224-1.024q.32-.48.896-.608t1.024.224.576.896-.224 1.056zm23.04 12.096q.32.48.224 1.088t-.608.928-1.088.256-.928-.608-.224-1.12.608-.928 1.056-.224.96.608zm1.984-10.816q1.248 2.048.768 4.384t-2.4 3.712q-1.6 1.12-3.552 1.056-.352 1.44-1.504 2.272t-2.56.8-2.528-1.024q-.192.16-.224.16-1.824 1.28-4 .896T8.736 27.36q-.896-1.312-.96-2.944-1.472-.224-2.528-1.248t-1.44-2.272-.032-2.72 1.44-2.496q-.64-1.056-.672-2.272t.416-2.24 1.44-1.76 2.144-.896q.576-1.504 1.792-2.624t2.592-1.664 3.008-.288 2.848 1.184q1.28-.384 2.496-.32t2.304.64 1.856 1.44 1.216 2.048.32 2.528q.928.288 1.536.992t.832 1.6-.096 1.792-1.056 1.536zM8.128 5.6q.256.352.16.8t-.416.672q-.352.256-.8.192T6.4 6.816q-.224-.352-.16-.8t.448-.672q.32-.256.768-.16t.672.416zM10.976.576q.064.288-.096.544t-.48.352-.544-.096-.32-.48q-.064-.32.128-.544t.448-.32q.288-.096.544.096t.32.448zM32.16 17.504q.064.384-.128.672t-.544.384q-.352.064-.64-.128t-.384-.544.128-.672.544-.384q.352-.064.64.128t.384.544zM20.288 1.568q.288.48.16 1.056t-.64.832q-.48.288-1.024.16t-.832-.608q-.288-.512-.16-1.056t.608-.864 1.056-.16.832.64zM33.6 13.28q.096.256-.064.48t-.416.32q-.256.032-.48-.096t-.288-.416q-.032-.256.096-.512t.416-.256q.256-.064.48.064t.256.416zm-3.392-4.288q.256.384.192.864t-.48.768q-.416.256-.896.192t-.736-.512-.192-.864.48-.768.896-.192.736.512z"/></svg>
